<svg width="1440" height="1024" viewBox="0 0 1440 1024" fill="none" xmlns="http://www.w3.org/2000/svg">
<g clip-path="url(#clip0)">
<path d="M1730.66 901.112L1673.38 895.322C1616.32 888.999 1501.46 878.22 1398.15 837.678C1294.53 797.937 1202.45 728.432 1109.86 660.262C1017.27 592.092 925.194 522.587 827.062 468.699C729.136 414.276 625.67 374.134 522.204 333.992C418.738 293.851 315.272 253.709 203.521 234.922C91.7703 216.136 -28.2657 218.704 -88.2838 219.988L-148.302 221.272L-15.7411 -120.406L35.9919 -100.336C87.725 -80.2647 191.191 -40.1231 294.657 0.0186069C398.123 40.1603 501.589 80.3019 605.055 120.444C708.521 160.585 811.987 200.727 915.453 240.869C1018.92 281.01 1122.38 321.152 1225.85 361.294C1329.32 401.435 1432.78 441.577 1536.25 481.719C1639.71 521.86 1743.18 562.002 1794.91 582.073L1846.65 602.144L1730.66 901.112Z" fill="url(#paint0_linear)"/>
</g>
<defs>
<linearGradient id="paint0_linear" x1="777.35" y1="596.832" x2="915.453" y2="240.869" gradientUnits="userSpaceOnUse">
<stop stop-color="#4F59C9" stop-opacity="0.33"/>
<stop offset="1" stop-color="#0099FF" stop-opacity="0"/>
</linearGradient>
<clipPath id="clip0">
<rect width="1997.64" height="458.115" fill="white" transform="translate(1680.95 1029.24) rotate(-158.795)"/>
</clipPath>
</defs>
</svg>
