<svg width="29" height="29" viewBox="0 0 29 29" fill="none" xmlns="http://www.w3.org/2000/svg">
<path d="M14.5012 2.41908C7.82878 2.41908 2.41907 7.82879 2.41907 14.5012C2.41907 20.5308 6.83673 25.5285 12.6138 26.4383V17.9945H9.54461V14.5012H12.6138V11.8392C12.6138 8.80875 14.4178 7.13762 17.1764 7.13762C18.4984 7.13762 19.8831 7.37325 19.8831 7.37325V10.3445H18.3558C16.8574 10.3445 16.3886 11.2774 16.3886 12.2332V14.4988H19.7369L19.2016 17.9921H16.3886V26.4359C22.1656 25.5309 26.5833 20.532 26.5833 14.5012C26.5833 7.82879 21.1736 2.41908 14.5012 2.41908V2.41908Z" fill="#E1E2EA"/>
</svg>
