<svg width="29" height="29" viewBox="0 0 29 29" fill="none" xmlns="http://www.w3.org/2000/svg">
<g clip-path="url(#clip0)">
<path fill-rule="evenodd" clip-rule="evenodd" d="M14.4565 0C10.6225 0.000480596 6.94576 1.52373 4.23474 4.23474C1.52373 6.94576 0.000480596 10.6225 0 14.4565C0 20.8401 4.16875 26.2504 9.84369 28.2025C10.5542 28.2913 10.8188 27.8473 10.8188 27.492V25.0089C6.8295 25.897 5.94319 23.0586 5.94319 23.0586C5.3215 21.373 4.34638 20.9289 4.34638 20.9289C3.016 20.0426 4.43338 20.0426 4.43338 20.0426C5.85256 20.1314 6.65188 21.5506 6.65188 21.5506C7.98225 23.7673 10.0213 23.1456 10.8206 22.7922C10.9076 21.8171 11.3517 21.1972 11.7069 20.8419C8.51331 20.4867 5.14388 19.2451 5.14388 13.6572C5.14388 12.0622 5.67494 10.8188 6.65188 9.75487C6.56125 9.48844 6.03019 7.98225 6.8295 6.03019C6.8295 6.03019 8.07106 5.67494 10.8188 7.53819C11.9716 7.18294 13.2149 7.09413 14.4565 7.09413C15.6981 7.09413 16.9396 7.27175 18.0924 7.53819C20.8419 5.67675 22.0835 6.03019 22.0835 6.03019C22.881 7.98225 22.3481 9.48844 22.2593 9.84369C23.2361 10.9078 23.7747 12.3016 23.7673 13.746C23.7673 19.3339 20.3961 20.4867 17.2061 20.8419C17.7371 21.2842 18.1812 22.1705 18.1812 23.5009V27.492C18.1812 27.8473 18.4458 28.2895 19.1563 28.2025C22.031 27.2324 24.528 25.3833 26.2944 22.9166C28.0608 20.4499 29.0073 17.4904 29 14.4565C28.9112 6.47425 22.4387 0 14.4565 0Z" fill="#E1E2EA"/>
</g>
<defs>
<clipPath id="clip0">
<rect width="29" height="29" fill="white"/>
</clipPath>
</defs>
</svg>
