<svg width="29" height="29" viewBox="0 0 29 29" fill="none" xmlns="http://www.w3.org/2000/svg">
<path d="M14.5 1.8125C7.49355 1.8125 1.8125 7.49355 1.8125 14.5C1.8125 21.5064 7.49355 27.1875 14.5 27.1875C21.5064 27.1875 27.1875 21.5064 27.1875 14.5C27.1875 7.49355 21.5064 1.8125 14.5 1.8125ZM19.2295 19.7562C18.0797 20.8154 16.5107 21.4385 14.6388 21.4385C11.9285 21.4385 9.58359 19.8837 8.44229 17.6181C7.97217 16.6807 7.70312 15.6215 7.70312 14.5C7.70312 13.3785 7.97217 12.3193 8.44229 11.3819C9.58359 9.11348 11.9285 7.55869 14.6388 7.55869C16.5079 7.55869 18.0769 8.24688 19.2805 9.36553L17.2924 11.3564C16.573 10.6683 15.6583 10.3199 14.6416 10.3199C12.8348 10.3199 11.3055 11.5405 10.7589 13.1803C10.6201 13.5966 10.5408 14.0412 10.5408 14.5C10.5408 14.9588 10.6201 15.4034 10.7589 15.8197C11.3055 17.4595 12.8348 18.6801 14.6388 18.6801C15.5733 18.6801 16.3663 18.4337 16.9865 18.0174C17.7229 17.5246 18.21 16.7911 18.3714 15.9217H14.6388V13.2369H21.1723C21.2544 13.6929 21.2969 14.1658 21.2969 14.6558C21.2969 16.7713 20.5407 18.547 19.2295 19.7562V19.7562Z" fill="#E1E2EA"/>
</svg>
